
        <svg xmlns="http://www.w3.org/2000/svg" xmlns:xlink="http://www.w3.org/1999/xlink" version="1.1" width="3300" height="2715.9012301658045" viewBox="0 0 3300 2715.9012301658045">
			
			<g transform="scale(15) translate(10, 10)">
				<defs id="SvgjsDefs8244"><linearGradient id="SvgjsLinearGradient8251"><stop id="SvgjsStop8252" stop-color="#ef4136" offset="0"/><stop id="SvgjsStop8253" stop-color="#fbb040" offset="1"/></linearGradient><linearGradient id="SvgjsLinearGradient8254"><stop id="SvgjsStop8255" stop-color="#ef4136" offset="0"/><stop id="SvgjsStop8256" stop-color="#fbb040" offset="1"/></linearGradient><linearGradient id="SvgjsLinearGradient8257"><stop id="SvgjsStop8258" stop-color="#ef4136" offset="0"/><stop id="SvgjsStop8259" stop-color="#fbb040" offset="1"/></linearGradient></defs><g id="SvgjsG8245" featureKey="symbolFeature-0" transform="matrix(1.227370353259225,0,0,1.227370353259225,60,0)" fill="#fff">    <title xmlns="http://www.w3.org/2000/svg">M Monogram Template_Artboard 30SVG</title>    <g xmlns="http://www.w3.org/2000/svg" id="Page-1" stroke-width="1" fill-rule="evenodd">        <g id="Artboard" transform="translate(-5404.000000, -829.000000)" fill-rule="nonzero">            <g id="M-Monogram-Template_Artboard-30SVG" transform="translate(5404.000000, 829.000000)">                <path d="M2.64,0 C1.94074961,-0.00263972741 1.26922694,0.273274578 0.773841332,0.766783722 C0.278455728,1.26029287 0,1.9307636 0,2.63001904 L0,51.560019 C0,53.0152894 1.17972968,54.195019 2.635,54.195019 C4.09027032,54.195019 5.27,53.0152894 5.27,51.560019 L5.27,2.63001904 C5.27,1.17751015 4.09250889,0 2.64,0 Z" id="Path" stroke="none"/>                <path d="M12.63,11.63 C11.1774911,11.63 10,12.8075101 10,14.260019 L10,51.560019 C10,53.0152894 11.1797297,54.195019 12.635,54.195019 C14.0902703,54.195019 15.27,53.0152894 15.27,51.560019 L15.27,14.260019 C15.27,13.5607636 14.9915443,12.8902929 14.4961587,12.3967837 C14.0007731,11.9032746 13.3292504,11.6273603 12.63,11.63 L12.63,11.63 Z" id="Path" stroke="none"/>                <path d="M22.61,26.4398477 C21.1653077,26.4510056 20,27.6252849 20,29.070019 L20,51.560019 C20,53.0152894 21.1797297,54.195019 22.635,54.195019 C24.0902703,54.195019 25.27,53.0152894 25.27,51.560019 L25.27,29.070019 C25.27,28.3672706 24.9888429,27.6937329 24.4891147,27.1996407 C23.9893864,26.7055485 23.3127027,26.4320029 22.61,26.4398477 Z" id="Path" stroke="none"/>                <path d="M32.59,36.530019 C31.153136,36.551875 29.9998338,37.7229888 30,39.160019 L30,51.560019 C30,53.0152894 31.1797297,54.195019 32.635,54.195019 C34.0902703,54.195019 35.27,53.0152894 35.27,51.560019 L35.27,39.160019 C35.2701276,38.4537496 34.9861861,37.7771084 34.482098,37.2824249 C33.9780099,36.7877414 33.2961419,36.5165919 32.59,36.530019 Z" id="Path" stroke="none"/>                <path d="M62.54,0 C61.0874911,0 59.91,1.17751015 59.91,2.63001904 L59.91,51.560019 C59.91,53.0152894 61.0897297,54.195019 62.545,54.195019 C64.0002703,54.195019 65.18,53.0152894 65.18,51.560019 L65.18,2.63001904 C65.18,1.9307636 64.9015443,1.26029287 64.4061587,0.766783722 C63.9107731,0.273274578 63.2392504,-0.00263972741 62.54,0 L62.54,0 Z" id="Path" stroke="none"/>                <path d="M52.55,11.63 C51.0974911,11.63 49.92,12.8075101 49.92,14.260019 L49.92,51.560019 C49.92,53.0152894 51.0997297,54.195019 52.555,54.195019 C54.0102703,54.195019 55.19,53.0152894 55.19,51.560019 L55.19,14.260019 C55.19,13.5607636 54.9115443,12.8902929 54.4161587,12.3967837 C53.9207731,11.9032746 53.2492504,11.6273603 52.55,11.63 Z" id="Path" stroke="none"/>                <path d="M42.57,26.44 C41.1174911,26.44 39.94,27.6175101 39.94,29.070019 L39.94,51.560019 C39.94,53.0152894 41.1197297,54.195019 42.575,54.195019 C44.0302703,54.195019 45.21,53.0152894 45.21,51.560019 L45.21,29.070019 C45.21,28.3707636 44.9315443,27.7002929 44.4361587,27.2067837 C43.9407731,26.7132746 43.2692504,26.4373603 42.57,26.44 Z" id="Path" stroke="none"/>            </g>        </g>    </g></g><g id="SvgjsG8246" featureKey="nameFeature-0" transform="matrix(1.8904324548853095,0,0,1.8904324548853095,-5.501452922358887,68.0956754511469)" fill="#fff"><path d="M26.699219 19.53125 c4.296875 0 7.070313 2.1875 7.070313 6.308594 l0 14.160156 l-5.625 0 l0 -12.558594 c0 -2.363281 -1.484375 -3.398437 -3.164062 -3.398437 c-2.011719 0 -3.789062 1.152344 -3.789062 4.628906 l0 11.328125 l-5.683594 0 l0 -12.5 c0 -2.402344 -1.445312 -3.457031 -3.222656 -3.457031 c-1.953125 0 -3.769531 1.152344 -3.769531 4.921875 l0 11.035156 l-5.605469 0 l0 -20.078125 l5.605469 0 l0 2.363281 c1.328125 -1.777344 3.359375 -2.753906 5.820313 -2.753906 c2.910156 0 5.097656 1.054688 6.152344 3.007813 c1.40625 -2.011719 3.554688 -3.007812 6.210938 -3.007812 z M62.93457 29.667969 l-0.058594 1.347656 l-14.882812 0 c0.234375 3.339844 2.460938 4.941406 5.136719 4.941406 c2.011719 0 3.574219 -0.9375 4.335938 -2.714844 l5.15625 0.761719 c-1.328125 4.0625 -4.941406 6.386719 -9.453125 6.386719 c-6.484375 0 -10.722656 -3.828125 -10.722656 -10.429687 s4.355469 -10.46875 10.546875 -10.46875 c5.683594 0 9.921875 3.144531 9.941406 10.175781 z M53.032226 23.476563 c-2.558594 0 -4.335937 1.191406 -4.882812 3.867188 l9.21875 0 c-0.292969 -2.558594 -2.03125 -3.867187 -4.335937 -3.867187 z M72.021484 40 l0 -30 l5.683594 0 l0 30 l-5.683594 0 z M97.69043 40.390625 c-6.386719 0 -10.996094 -3.886719 -10.996094 -10.449219 c0 -6.523437 4.570313 -10.410156 10.996094 -10.410156 c6.464844 0 11.015625 3.886719 11.015625 10.410156 c0 6.5625 -4.570312 10.449219 -11.015625 10.449219 z M97.631836 35.917969 c3.261719 0 5.488281 -2.382812 5.488281 -5.976562 s-2.226562 -5.976562 -5.488281 -5.976562 c-3.144531 0 -5.351562 2.382813 -5.351562 5.976563 s2.207031 5.976563 5.351563 5.976563 z"/></g><g id="SvgjsG8247" featureKey="sloganFeature-0" transform="matrix(0.4868366316039698,0,0,0.4868366316039698,19.790812036644976,151.2282643315059)" fill="#fff"><path d="M4.121094 20 l-3.691406 -14.111328 l3.046875 0 l2.753906 10.683594 l3.154297 -10.683594 l2.470703 0 l3.134766 10.683594 l2.783203 -10.683594 l3.037109 0 l-3.691406 14.111328 l-3.769531 0 l-2.734375 -8.720703 l-2.724609 8.720703 l-3.769531 0 z M31.96289 5.888672 l2.929688 0 l0 14.111328 l-2.929687 0 l0 -5.800781 l-5.966797 0 l0 5.800781 l-2.929687 0 l0 -14.111328 l2.929688 0 l0 5.761719 l5.966797 0 l0 -5.761719 z M46.728516 8.466797 l-5.234375 0 l0 3.203125 l4.638672 0 l0 2.548828 l-4.638672 0 l0 3.193359 l5.234375 0 l0 2.587891 l-8.183594 0 l0 -14.111328 l8.183594 0 l0 2.578125 z M57.197266 20 l-3.671875 -6.210937 l-0.849609 0 l0 6.210938 l-2.929687 0 l0 -14.111328 l5.117188 0 c3.193359 0 4.541016 1.884766 4.541016 4.21875 c0 1.894531 -1.074219 3.125 -2.988281 3.535156 l4.248047 6.357422 l-3.466797 0 z M52.675781 8.320313 l0 3.369141 l1.728516 0 c1.5625 0 2.197266 -0.664062 2.197266 -1.679687 c0 -1.005859 -0.634766 -1.689453 -2.197266 -1.689453 l-1.728516 0 z M70.996094 8.466797 l-5.234375 0 l0 3.203125 l4.638672 0 l0 2.548828 l-4.638672 0 l0 3.193359 l5.234375 0 l0 2.587891 l-8.183594 0 l0 -14.111328 l8.183594 0 l0 2.578125 z M85.458985 20.195313 c-4.150391 0 -7.216797 -2.822266 -7.216797 -7.255859 s3.066406 -7.246094 7.216797 -7.246094 c3.144531 0 5.664063 1.611328 6.669922 4.287109 l-2.734375 0.996094 c-0.625 -1.640625 -2.119141 -2.587891 -3.935547 -2.587891 c-2.431641 0 -4.296875 1.699219 -4.296875 4.550781 s1.865234 4.560547 4.296875 4.560547 c1.816406 0 3.310547 -0.957031 3.935547 -2.597656 l2.734375 0.996094 c-1.005859 2.675781 -3.525391 4.296875 -6.669922 4.296875 z M100.78125 20.195313 c-4.150391 0 -7.216797 -2.832031 -7.216797 -7.255859 c0 -4.433594 3.066406 -7.246094 7.216797 -7.246094 c4.140625 0 7.207031 2.8125 7.207031 7.246094 c0 4.423828 -3.066406 7.255859 -7.207031 7.255859 z M100.78125 17.509766 c2.431641 0 4.296875 -1.708984 4.296875 -4.570312 c0 -2.851562 -1.865234 -4.550781 -4.296875 -4.550781 s-4.296875 1.699219 -4.296875 4.550781 c0 2.861328 1.865234 4.570313 4.296875 4.570313 z M120.322266 5.888672 l2.919922 0 l0 14.111328 l-3.388672 0 l-6.25 -10.087891 l0 10.087891 l-2.919922 0 l0 -14.111328 l3.349609 0 l6.289063 10.029297 l0 -10.029297 z M133.144531 20.195313 c-4.150391 0 -7.216797 -2.822266 -7.216797 -7.255859 s3.066406 -7.246094 7.216797 -7.246094 c3.144531 0 5.664063 1.611328 6.669922 4.287109 l-2.734375 0.996094 c-0.625 -1.640625 -2.119141 -2.587891 -3.935547 -2.587891 c-2.431641 0 -4.296875 1.699219 -4.296875 4.550781 s1.865234 4.560547 4.296875 4.560547 c1.816406 0 3.310547 -0.957031 3.935547 -2.597656 l2.734375 0.996094 c-1.005859 2.675781 -3.525391 4.296875 -6.669922 4.296875 z M150.400391 8.466797 l-5.234375 0 l0 3.203125 l4.638672 0 l0 2.548828 l-4.638672 0 l0 3.193359 l5.234375 0 l0 2.587891 l-8.183594 0 l0 -14.111328 l8.183594 0 l0 2.578125 z M160.869141 20 l-3.671875 -6.210937 l-0.849609 0 l0 6.210938 l-2.929687 0 l0 -14.111328 l5.117188 0 c3.193359 0 4.541016 1.884766 4.541016 4.21875 c0 1.894531 -1.074219 3.125 -2.988281 3.535156 l4.248047 6.357422 l-3.466797 0 z M156.347656 8.320313 l0 3.369141 l1.728516 0 c1.5625 0 2.197266 -0.664062 2.197266 -1.679687 c0 -1.005859 -0.634766 -1.689453 -2.197266 -1.689453 l-1.728516 0 z M174.667969 5.888672 l0 2.578125 l-3.349609 0 l0 11.533203 l-2.900391 0 l0 -11.533203 l-3.369141 0 l0 -2.578125 l9.619141 0 z M181.572266 20.195313 c-3.027344 0 -5.390625 -1.455078 -5.820312 -4.101562 l3.027344 -0.693359 c0.195313 1.582031 1.357422 2.402344 2.910156 2.402344 c1.191406 0 2.138672 -0.527344 2.128906 -1.71875 c-0.009766 -1.328125 -1.572266 -1.748047 -3.291016 -2.275391 c-2.070312 -0.644531 -4.287109 -1.40625 -4.287109 -4.003906 c0 -2.626953 2.148438 -4.111328 4.980469 -4.111328 c2.480469 0 4.980469 1.005859 5.546875 3.710938 l-2.832031 0.703125 c-0.263672 -1.40625 -1.210937 -2.021484 -2.539062 -2.021484 c-1.181641 0 -2.1875 0.488281 -2.1875 1.650391 c0 1.083984 1.386719 1.445313 2.988281 1.923828 c2.128906 0.644531 4.648438 1.464844 4.648438 4.277344 c0 2.998047 -2.509766 4.257813 -5.273437 4.257813 z M197.675781 17.412109 l4.423828 0 l0 2.587891 l-7.353516 0 l0 -14.111328 l2.929688 0 l0 11.523438 z M204.335938 20 l0 -14.111328 l2.929688 0 l0 14.111328 l-2.929687 0 z M219.882812 5.888672 l3.115234 0 l-5.214844 14.111328 l-3.222656 0 l-5.185547 -14.111328 l3.105469 0 l3.701172 10.693359 z M233.300782 8.466797 l-5.234375 0 l0 3.203125 l4.638672 0 l0 2.548828 l-4.638672 0 l0 3.193359 l5.234375 0 l0 2.587891 l-8.183594 0 l0 -14.111328 l8.183594 0 l0 2.578125 z M249.833984 8.466797 l-5.371094 0 l0 3.203125 l4.638672 0 l0 2.548828 l-4.638672 0 l0 5.78125 l-2.949219 0 l0 -14.111328 l8.320313 0 l0 2.578125 z M258.583985 20.195313 c-4.150391 0 -7.216797 -2.832031 -7.216797 -7.255859 c0 -4.433594 3.066406 -7.246094 7.216797 -7.246094 c4.140625 0 7.207031 2.8125 7.207031 7.246094 c0 4.423828 -3.066406 7.255859 -7.207031 7.255859 z M258.583985 17.509766 c2.431641 0 4.296875 -1.708984 4.296875 -4.570312 c0 -2.851562 -1.865234 -4.550781 -4.296875 -4.550781 s-4.296875 1.699219 -4.296875 4.550781 c0 2.861328 1.865234 4.570313 4.296875 4.570313 z M275.9375 20 l-3.671875 -6.210937 l-0.849609 0 l0 6.210938 l-2.929687 0 l0 -14.111328 l5.117188 0 c3.193359 0 4.541016 1.884766 4.541016 4.21875 c0 1.894531 -1.074219 3.125 -2.988281 3.535156 l4.248047 6.357422 l-3.466797 0 z M271.416015 8.320313 l0 3.369141 l1.728516 0 c1.5625 0 2.197266 -0.664062 2.197266 -1.679687 c0 -1.005859 -0.634766 -1.689453 -2.197266 -1.689453 l-1.728516 0 z M289.736329 8.466797 l-5.234375 0 l0 3.203125 l4.638672 0 l0 2.548828 l-4.638672 0 l0 3.193359 l5.234375 0 l0 2.587891 l-8.183594 0 l0 -14.111328 l8.183594 0 l0 2.578125 z M301.728515 5.888672 l3.115234 0 l-5.214844 14.111328 l-3.222656 0 l-5.185547 -14.111328 l3.105469 0 l3.701172 10.693359 z M315.146485 8.466797 l-5.234375 0 l0 3.203125 l4.638672 0 l0 2.548828 l-4.638672 0 l0 3.193359 l5.234375 0 l0 2.587891 l-8.183594 0 l0 -14.111328 l8.183594 0 l0 2.578125 z M325.615235 20 l-3.671875 -6.210937 l-0.849609 0 l0 6.210938 l-2.929687 0 l0 -14.111328 l5.117188 0 c3.193359 0 4.541016 1.884766 4.541016 4.21875 c0 1.894531 -1.074219 3.125 -2.988281 3.535156 l4.248047 6.357422 l-3.466797 0 z M321.09375 8.320313 l0 3.369141 l1.728516 0 c1.5625 0 2.197266 -0.664062 2.197266 -1.679687 c0 -1.005859 -0.634766 -1.689453 -2.197266 -1.689453 l-1.728516 0 z"/></g>
			</g>
		</svg>
	